<svg width="600" height="615" viewBox="0 0 600 615" fill="none" xmlns="http://www.w3.org/2000/svg">
<path d="M433.5 73.7144C393 73.7144 376.5 84.4644 352.5 107.5L301.5 164.321L252 107.5C229.5 84.4644 213 73.7144 171 73.7144H111C111 73.7144 204 191.964 216 205.786C237 228.821 249 239.571 277.5 239.571H327C354 239.571 367.5 228.821 388.5 205.786C400.5 193.5 493.5 73.7144 493.5 73.7144H433.5Z" fill="#FCB813"/>
<path d="M400.5 228.822C372 234.964 355.5 241.107 340.5 267.214L328.5 288.714L315 308.679C300 333.25 304.5 350.143 313.5 380.857C319.5 397.75 373.5 539.036 373.5 539.036L402 486.822C423 451.5 423 430 414 397.75L391.5 325.572L465 308.679C496.5 301 513 290.25 532.5 253.393L561 201.179C564 201.179 417 224.214 400.5 228.822Z" fill="#F37920"/>
<path d="M286.5 308.679L274.5 287.179L262.5 265.679C247.5 241.107 231 233.429 202.5 227.286C186 222.679 37.5 199.643 37.5 199.643L66 251.857C87 287.179 103.5 297.929 133.5 307.143L210 324.036L187.5 399.286C180 430 180 451.5 199.5 486.822L228 539.036C228 539.036 282 397.75 288 380.857C298.5 350.143 301.5 333.25 286.5 308.679Z" fill="#F6921E"/>
</svg>
